<svg width="14" height="11" viewBox="0 0 14 11" fill="none" xmlns="http://www.w3.org/2000/svg">
<path d="M9.73438 0.359375C8.58594 0.359375 7.58734 0.877266 7 1.74516C6.41266 0.877266 5.41406 0.359375 4.26562 0.359375C3.39569 0.360388 2.56168 0.706416 1.94655 1.32155C1.33142 1.93668 0.985388 2.77069 0.984375 3.64063C0.984375 5.2375 1.97969 6.89945 3.94297 8.57945C4.84261 9.34604 5.81438 10.0237 6.84469 10.6029C6.89244 10.6285 6.9458 10.642 7 10.642C7.0542 10.642 7.10756 10.6285 7.15531 10.6029C8.18562 10.0237 9.15739 9.34604 10.057 8.57945C12.0203 6.89945 13.0156 5.2375 13.0156 3.64063C13.0146 2.77069 12.6686 1.93668 12.0534 1.32155C11.4383 0.706416 10.6043 0.360388 9.73438 0.359375ZM7 9.9357C6.10258 9.41781 1.64062 6.68781 1.64062 3.64063C1.64135 2.94465 1.91814 2.2774 2.41027 1.78527C2.9024 1.29314 3.56965 1.01635 4.26562 1.01563C5.37469 1.01563 6.30602 1.60789 6.69648 2.56164C6.72121 2.62182 6.76326 2.6733 6.8173 2.70952C6.87135 2.74575 6.93494 2.76509 7 2.76509C7.06506 2.76509 7.12865 2.74575 7.1827 2.70952C7.23674 2.6733 7.27879 2.62182 7.30352 2.56164C7.69398 1.60789 8.62531 1.01563 9.73438 1.01563C10.4303 1.01635 11.0976 1.29314 11.5897 1.78527C12.0819 2.2774 12.3587 2.94465 12.3594 3.64063C12.3594 6.68781 7.89742 9.41781 7 9.9357Z" fill="#CBCBCB"/>
</svg>
